<svg xmlns="http://www.w3.org/2000/svg" viewBox="0 0 64 64" fill="#ffffff">
    <path d="M54.3042,4H9.6958a2.002,2.002,0,0,0-2,2V58a2.002,2.002,0,0,0,2,2H54.3042a2.002,2.002,0,0,0,2-2V6A2.002,2.002,0,0,0,54.3042,4Zm0,2,.00037,12.627H9.6958V6ZM9.6958,58V20.627H54.30463L54.30566,58Z"></path>
    <path fill="#F68702" d="M45.96191 16.76318A4.37176 4.37176 0 0045.96182 8.02 4.37176 4.37176 0 0045.96191 16.76318zm0-6.74316a2.37173 2.37173 0 01-.00007 4.74316A2.37173 2.37173 0 0145.96191 10.02zM34.16211 16.76318A4.37176 4.37176 0 0034.162 8.02 4.37176 4.37176 0 0034.16211 16.76318zm0-6.74316a2.37173 2.37173 0 01-.00007 4.74316A2.37173 2.37173 0 0134.16211 10.02zM14.64648 13.38867h9.3462a1.00019 1.00019 0 00-.00007-2H14.64648A1.00019 1.00019 0 0014.64648 13.38867zM45.39551 27.37256H18.30371a1.00011 1.00011 0 00.00005 2H45.39551A1.00011 1.00011 0 0045.39551 27.37256z"></path>
</svg>