<svg xmlns="http://www.w3.org/2000/svg" data-name="Artboard 30" viewBox="0 0 64 64" id="crystal"><path d="M61,56.382A3.638,3.638,0,0,0,59.382,56H48.811l3.072-5.529,8-15a1,1,0,0,0,.065-.787l-3-9a1,1,0,0,0-1.264-.632l-9,3a1,1,0,0,0-.613.577L45,31.308V14a1,1,0,0,0-.293-.707l-12-12a1,1,0,0,0-1.414,0l-12,12A1,1,0,0,0,19,14V31.307l-1.071-2.678a1,1,0,0,0-.613-.577l-9-3a1,1,0,0,0-1.264.632l-3,9a1,1,0,0,0,.065.787l8.009,15.015L15.19,56H9a.969.969,0,0,0-.142.01l-4.752.678A3.638,3.638,0,0,0,1,60.271V62a1,1,0,0,0,1,1H62a1,1,0,0,0,1-1V59.618A3.6,3.6,0,0,0,61,56.382ZM50.126,49.515,46.523,56H45.071l-1.64-.234L51.667,36h5.666ZM57.612,34H51.535l-2.977-4.466,6.809-2.269Zm-10.39-2.863,2.649,3.974L41.387,55.474l-3.014-.431,3.556-10.672Zm-7.17,12.548L36.28,55H33V18.72l10-3.333V36.31ZM32,3.414,42.149,13.563,32,16.946,21.851,13.563ZM21,15.387,31,18.72V55H28a1,1,0,0,0-.164.014l-.1.017-3.8-11.4L21,36.307Zm1.052,28.929,3.682,11.048-2.961.493L14.129,35.11l2.649-3.974ZM8.633,27.265l6.809,2.269L12.465,34H6.388Zm5.25,22.264L6.667,36h5.666l8.333,20H17.477ZM61,61H3v-.729a1.627,1.627,0,0,1,1.39-1.6L9.071,58H22a1,1,0,0,0,.164-.014L28.083,57h9.846l6.929.99A.969.969,0,0,0,45,58H59.382A1.619,1.619,0,0,1,61,59.618Z" fill="#ffffff"></path></svg>